<svg xmlns="http://www.w3.org/2000/svg" version="1.1" xmlns:xlink="http://www.w3.org/1999/xlink" width="2000" height="123" viewBox="0 0 2000 123"><svg xml:space="preserve" width="2000" height="123" data-version="2" data-id="lg_Kgl9HrB8kbU0bDHLHz" viewBox="0 0 565 123" x="0" y="0"><rect width="100%" height="100%" fill="transparent"></rect><path fill="#ffa62e" d="M167.69 83.88h-5.38V39.21h17.8q4.03 0 6.81 1.57 2.79 1.56 4.23 4.41 1.44 2.85 1.44 6.82 0 3.9-1.44 6.78-1.44 2.88-4.23 4.45-2.78 1.57-6.81 1.57h-12.42Zm0-39.94v16.13h12.42q2.11 0 3.61-.73 1.51-.74 2.31-2.18.8-1.44.8-3.49v-3.33q0-2.04-.8-3.48t-2.31-2.18q-1.5-.74-3.61-.74Z"></path><rect width="30.28" height="44.67" x="-15.14" y="-22.34" fill="none" rx="0" ry="0" transform="translate(177.95 62.05)"></rect><path fill="#ffa62e" d="M216.91 83.88h-17.92V79.4h6.27V43.69h-6.27v-4.48h17.92v4.48h-6.28V79.4h6.28Z"></path><rect width="17.92" height="44.67" x="-8.96" y="-22.34" fill="none" rx="0" ry="0" transform="translate(208.45 62.05)"></rect><path fill="#ffa62e" d="m253.83 83.88-16.32-27.26-5.37-9.92h-.19v37.18h-5.25V39.21h6.21l16.32 27.26 5.37 9.92h.19V39.21h5.25v44.67Z"></path><rect width="33.34" height="44.67" x="-16.67" y="-22.34" fill="none" rx="0" ry="0" transform="translate(243.87 62.05)"></rect><path fill="#ffa62e" d="m299.08 83.88-16.32-27.26-5.37-9.92h-.2v37.18h-5.24V39.21h6.2l16.32 27.26 5.38 9.92h.19V39.21h5.25v44.67Z"></path><rect width="33.34" height="44.67" x="-16.67" y="-22.34" fill="none" rx="0" ry="0" transform="translate(289.12 62.05)"></rect><path fill="#ffa62e" d="M350.79 83.88h-5.63l-4.48-13.18h-18.05l-4.48 13.18h-5.44l15.62-44.67h6.85Zm-11.45-17.92-5.63-16.19-1.92-5.57h-.32l-1.92 5.57-5.64 16.19Z"></path><rect width="38.08" height="44.67" x="-19.04" y="-22.34" fill="none" rx="0" ry="0" transform="translate(332.25 62.05)"></rect><path fill="#ffa62e" d="M373 84.65q-5.63 0-9.66-2.59-4.03-2.6-6.18-7.68-2.14-5.09-2.14-12.58t2.14-12.7q2.15-5.22 6.18-7.94 4.03-2.72 9.66-2.72 5.57 0 9.41 2.56t5.95 7.23l-4.35 2.63q-1.34-3.46-4.1-5.54-2.75-2.08-6.91-2.08-5.76 0-8.99 4.19-3.23 4.19-3.23 11.04v6.66q0 6.85 3.23 10.78 3.23 3.94 8.99 3.94 4.29 0 7.17-2.21t4.22-5.86l4.29 2.69q-2.11 4.67-6.11 7.43-4 2.75-9.57 2.75"></path><rect width="33.66" height="46.21" x="-16.83" y="-23.11" fill="none" rx="0" ry="0" transform="translate(372.35 62.05)"></rect><path fill="#ffa62e" d="M421.39 83.88H397V39.21h5.38v39.93h19.01Z"></path><rect width="24.39" height="44.67" x="-12.2" y="-22.34" fill="none" rx="0" ry="0" transform="translate(409.7 62.05)"></rect><path fill="#ffa62e" d="M456.33 83.88h-27.26V39.21h27.26v4.73h-21.89v14.98h20.61v4.74h-20.61v15.48h21.89Z"></path><rect width="27.26" height="44.67" x="-13.63" y="-22.34" fill="none" rx="0" ry="0" transform="translate(443.2 62.05)"></rect><path fill="#ffa62e" d="M466.38 83.88V39.21h7.17l8.44 15.81 4.36 8.25h.32l4.41-8.25 8.45-15.81h6.91v44.67h-5.25V46.25h-.32l-3.77 7.49-10.69 19.45-10.69-19.45-3.77-7.49h-.32v37.63Z"></path><rect width="40.06" height="44.67" x="-20.03" y="-22.34" fill="none" rx="0" ry="0" transform="translate(486.91 62.05)"></rect><path fill="#ffa62e" d="M518.35 83.88V39.21h7.16l8.45 15.81 4.35 8.25h.32l4.42-8.25 8.45-15.81h6.91v44.67h-5.25V46.25h-.32l-3.77 7.49-10.69 19.45-10.69-19.45-3.78-7.49h-.32v37.63Z"></path><rect width="40.06" height="44.67" x="-20.03" y="-22.34" fill="none" rx="0" ry="0" transform="translate(538.88 62.05)"></rect><path fill="#ffa62e" d="M113.512.795c-8.244 0-14.99 6.745-14.99 14.989 0 2.098.45 3.897 1.2 5.696l-25.93 25.93c-2.1-1.048-4.348-1.648-6.746-1.648-8.244 0-14.989 6.745-14.989 14.989S58.802 75.74 67.046 75.74s14.989-6.745 14.989-14.989c0-3.597-1.349-7.045-3.447-9.593l24.581-24.582c2.699 2.548 6.296 4.197 10.343 4.197 8.244 0 14.989-6.745 14.989-14.989S121.756.795 113.51.795m-46.466 68.95c-4.946 0-8.993-4.048-8.993-8.994s4.047-8.993 8.993-8.993 8.993 4.047 8.993 8.993-4.047 8.993-8.993 8.993m46.466-44.968c-4.946 0-8.994-4.047-8.994-8.993s4.048-8.993 8.994-8.993 8.993 4.047 8.993 8.993-4.047 8.993-8.993 8.993"></path><path fill="#ffa62e" d="M67.046 30.773c8.244 0 14.989-6.745 14.989-14.989S75.29.795 67.046.795 52.057 7.54 52.057 15.784s6.745 14.989 14.989 14.989m0-23.982c4.946 0 8.993 4.047 8.993 8.993s-4.047 8.993-8.993 8.993-8.993-4.047-8.993-8.993 4.047-8.993 8.993-8.993m46.466 38.971c-8.244 0-14.99 6.745-14.99 14.989s6.746 14.989 14.99 14.989S128.5 68.995 128.5 60.751s-6.745-14.989-14.99-14.989m0 23.982c-4.946 0-8.994-4.047-8.994-8.993s4.048-8.993 8.994-8.993 8.993 4.047 8.993 8.993-4.047 8.993-8.993 8.993M20.58 90.73c-8.244 0-14.989 6.745-14.989 14.989s6.745 14.989 14.99 14.989 14.988-6.745 14.988-14.989S28.824 90.73 20.58 90.73m0 23.982c-4.946 0-8.993-4.047-8.993-8.993s4.047-8.993 8.993-8.993 8.994 4.047 8.994 8.993-4.048 8.993-8.994 8.993"></path><path fill="#ffa62e" d="M113.512 90.729c-7.195 0-13.34 5.096-14.69 11.991H81.736c-1.349-6.895-7.494-11.991-14.689-11.991-4.647 0-8.844 2.098-11.542 5.546L30.773 71.693c2.848-2.698 4.796-6.595 4.796-10.942 0-7.195-5.096-13.34-11.991-14.69V30.474c6.895-1.349 11.991-7.494 11.991-14.689C35.57 7.54 28.824.795 20.58.795S5.591 7.54 5.591 15.784c0 7.195 5.096 13.34 11.991 14.69v15.588c-6.895 1.349-11.99 7.494-11.99 14.689 0 8.244 6.744 14.989 14.988 14.989 1.799 0 3.448-.3 4.946-.9l26.98 26.98c-.3 1.35-.449 2.549-.449 3.898 0 8.244 6.745 14.989 14.989 14.989 7.195 0 13.34-5.096 14.69-11.991h17.087c1.349 6.895 7.494 11.991 14.689 11.991 8.244 0 14.989-6.745 14.989-14.989s-6.745-14.989-14.99-14.989M11.587 15.784c0-4.946 4.047-8.993 8.993-8.993s8.993 4.047 8.993 8.993-4.047 8.993-8.993 8.993-8.993-4.047-8.993-8.993m0 44.967c0-4.946 4.047-8.993 8.993-8.993s8.993 4.047 8.993 8.993-4.047 8.993-8.993 8.993-8.993-4.047-8.993-8.993m55.459 53.96c-4.946 0-8.993-4.047-8.993-8.993s4.047-8.993 8.993-8.993 8.993 4.047 8.993 8.993-4.047 8.993-8.993 8.993m46.466 0c-4.946 0-8.994-4.047-8.994-8.993s4.048-8.993 8.994-8.993 8.993 4.047 8.993 8.993-4.047 8.993-8.993 8.993"></path></svg></svg>